<svg width="41" height="33" viewBox="0 0 41 33" fill="none" xmlns="http://www.w3.org/2000/svg">
<path fill-rule="evenodd" clip-rule="evenodd" d="M21.3097 1.3044C21.0561 1.18655 20.7797 1.12549 20.5 1.12549C20.2203 1.12549 19.9439 1.18655 19.6902 1.3044L1.75274 9.63253C1.42079 9.78697 1.13987 10.033 0.943023 10.3417C0.746177 10.6504 0.641602 11.0089 0.641602 11.375C0.641602 11.7411 0.746177 12.0996 0.943023 12.4083C1.13987 12.717 1.42079 12.9631 1.75274 13.1175L5.42736 14.8242C5.2293 15.1331 5.12433 15.4925 5.12499 15.8594V24.1875C5.12526 24.6145 5.26771 25.0292 5.52986 25.3663L5.53242 25.3714L5.53499 25.374L5.54268 25.3842L5.56318 25.4098C5.64681 25.516 5.73486 25.6186 5.82711 25.7173C6.00136 25.9121 6.24993 26.1735 6.57536 26.4835C7.22624 27.0985 8.18974 27.9057 9.47611 28.7027C12.0591 30.3068 15.9311 31.875 21.1406 31.875C26.3604 31.875 29.9556 30.2991 32.2747 28.6309C33.2026 27.9682 34.0437 27.1917 34.7782 26.3195C35.0799 25.9567 35.3557 25.5731 35.6034 25.1715L35.6213 25.1408L35.629 25.1305V25.1254C35.629 25.1228 35.6315 25.1203 33.9531 24.1875L35.6315 25.1228C35.7906 24.8367 35.8744 24.5149 35.875 24.1875V15.8594C35.8755 15.4925 35.7705 15.1331 35.5726 14.8242L39.2472 13.1175C39.5792 12.9631 39.8601 12.717 40.057 12.4083C40.2538 12.0996 40.3584 11.7411 40.3584 11.375C40.3584 11.0089 40.2538 10.6504 40.057 10.3417C39.8601 10.033 39.5792 9.78697 39.2472 9.63253L21.3097 1.3044ZM32.0312 16.4693L21.3097 21.4457C21.0561 21.5635 20.7797 21.6246 20.5 21.6246C20.2203 21.6246 19.9439 21.5635 19.6902 21.4457L8.96874 16.4693V23.447C9.73678 24.2032 10.5878 24.8703 11.5056 25.4355C13.5659 26.7167 16.7408 28.0313 21.1406 28.0313C25.5302 28.0313 28.3412 26.7244 30.0274 25.5098C30.7825 24.9718 31.4573 24.329 32.0312 23.6007V16.4693ZM20.5 17.584L7.1263 11.375L20.5 5.16609L33.8737 11.375L20.5 17.584Z" fill="black"/>
<path d="M5.52986 25.3663C5.26771 25.0292 5.12526 24.6145 5.12499 24.1875V15.8594C5.12433 15.4925 5.2293 15.1331 5.42736 14.8242L1.75274 13.1175C1.42079 12.9631 1.13987 12.717 0.943023 12.4083C0.746177 12.0996 0.641602 11.7411 0.641602 11.375C0.641602 11.0089 0.746177 10.6504 0.943023 10.3417C1.13987 10.033 1.42079 9.78697 1.75274 9.63253L19.6902 1.3044C19.9439 1.18655 20.2203 1.12549 20.5 1.12549C20.7797 1.12549 21.0561 1.18655 21.3097 1.3044L39.2472 9.63253C39.5792 9.78697 39.8601 10.033 40.057 10.3417C40.2538 10.6504 40.3584 11.0089 40.3584 11.375C40.3584 11.7411 40.2538 12.0996 40.057 12.4083C39.8601 12.717 39.5792 12.9631 39.2472 13.1175L35.5726 14.8242C35.7705 15.1331 35.8755 15.4925 35.875 15.8594V24.1875C35.8744 24.5149 35.7906 24.8367 35.6315 25.1228L33.9531 24.1875C35.6316 25.1203 35.629 25.1228 35.629 25.1254V25.1305L35.6213 25.1408L35.6034 25.1715C35.3557 25.5731 35.0799 25.9567 34.7782 26.3195C34.0437 27.1917 33.2026 27.9682 32.2747 28.6309C29.9556 30.2991 26.3604 31.875 21.1406 31.875C15.9311 31.875 12.0591 30.3068 9.47611 28.7027C8.18974 27.9057 7.22624 27.0985 6.57536 26.4835C6.24993 26.1735 6.00136 25.9121 5.82711 25.7173C5.73486 25.6186 5.64681 25.516 5.56318 25.4098L5.54268 25.3842L5.53499 25.374L5.53242 25.3714L5.52986 25.3663ZM5.52986 25.3663L7.04686 24.1875M32.0312 16.4693L21.3097 21.4457C21.0561 21.5635 20.7797 21.6246 20.5 21.6246C20.2203 21.6246 19.9439 21.5635 19.6902 21.4457L8.96874 16.4693V23.447C9.73678 24.2032 10.5878 24.8703 11.5056 25.4355C13.5659 26.7167 16.7408 28.0313 21.1406 28.0313C25.5302 28.0313 28.3412 26.7244 30.0274 25.5098C30.7825 24.9718 31.4573 24.329 32.0312 23.6007V16.4693ZM20.5 17.584L7.1263 11.375L20.5 5.16609L33.8737 11.375L20.5 17.584Z" stroke="black"/>
</svg>
